<svg xmlns="http://www.w3.org/2000/svg" xmlns:xlink="http://www.w3.org/1999/xlink" width="18" height="20" viewBox="0 0 18 20"><defs><path id="ouh7a" d="M40.27 26.28c-1.37 1.16-1.48 2.43-2.75 2.32-1.27-.11-2.43-1.49-3.58-2.86-1.16-1.38-2.32-2.76-2.21-4.02.1-1.27 1.37-1.16 2.75-2.32 1.37-1.16-2.1-5.3-3.37-5.4-1.27-.1-4.13 3.48-4.13 3.48-.21 2.53 1.95 7.9 4.2 10.57 2.26 2.68 7.17 5.73 9.7 5.94 0 0 4.03-2.2 4.14-3.47.1-1.27-3.37-5.4-4.75-4.24z"/></defs><g><g transform="translate(-27 -14)"><use fill="#191a1a" xlink:href="#ouh7a"/></g></g></svg>