<?xml version="1.0" encoding="UTF-8"?>
<!DOCTYPE svg PUBLIC "-//W3C//DTD SVG 1.1//EN" "http://www.w3.org/Graphics/SVG/1.1/DTD/svg11.dtd">
<!-- Creator: CorelDRAW 2018 (64-Bit) -->
<svg xmlns="http://www.w3.org/2000/svg" xml:space="preserve" width="92.266mm" height="24.425mm" version="1.1" style="shape-rendering:geometricPrecision; text-rendering:geometricPrecision; image-rendering:optimizeQuality; fill-rule:evenodd; clip-rule:evenodd"
viewBox="0 0 9226.6 2442.5"
 xmlns:xlink="http://www.w3.org/1999/xlink">
 <defs>
  <style type="text/css">
   <![CDATA[
    .fil1 {fill:#2B2A29}
    .fil2 {fill:#FFD109}
    .fil0 {fill:#2B2A29;fill-rule:nonzero}
   ]]>
  </style>
 </defs>
 <g id="Слой_x0020_1">
  <metadata id="CorelCorpID_0Corel-Layer"/>
  <g id="_2421389139472">
   <path class="fil0" d="M3630.79 1286.48l-219.13 0 -92.18 -493.91c-14.31,-67.33 -24.43,-147.19 -30.37,-239.16l-5.06 47.75 -26.62 194.04 -89.54 491.28 -219.14 0 -170.72 -942.52 172.05 0 84.49 531.77c8.13,53.46 19.14,137.06 32.78,250.81 10.78,-115.07 20.9,-197.35 30.35,-246.86l100.55 -535.72 181.73 0 100.55 535.72c13.41,79.43 23.97,162.16 31.67,248.18 14.97,-127.17 25.96,-211.21 32.78,-252.13l81.85 -531.77 173.37 0 -169.41 942.52zm689.29 0l-425.06 0 0 -942.52 425.06 0 0 151.82 -249.72 0 0 224.41 231.67 0 0 151.8 -231.67 0 0 261.37 249.72 0 0 153.12zm137.07 0l0 -942.52 175.34 0 0 789.4 243.12 0 0 153.12 -418.46 0zm530.44 0l0 -942.52 175.34 0 0 789.4 243.12 0 0 153.12 -418.46 0zm1192.88 0l-179.09 -802.58 -7.04 0c8.14,61.82 12.1,118.58 12.1,170.06l0 632.52 -162.36 0 0 -942.52 269.29 0 161.04 740.78 5.29 0 159.71 -740.78 273.26 0 0 942.52 -166.33 0 0 -638.9c0,-52.81 3.09,-106.92 9.02,-162.36l-5.06 0 -178.43 801.26 -191.4 0zm1123.81 0l-425.06 0 0 -942.52 425.06 0 0 151.82 -249.72 0 0 224.41 231.67 0 0 151.8 -231.67 0 0 261.37 249.72 0 0 153.12zm736.37 -480.27c0,155.54 -31.69,274.57 -95.05,356.84 -63.35,82.3 -154.66,123.43 -273.69,123.43l-230.56 0 0 -942.52 251.9 0c109.57,0 194.93,40.49 255.87,121.45 60.95,81.18 91.53,194.72 91.53,340.8zm-179.75 5.5c0,-210.55 -58.08,-315.93 -174.02,-315.93l-70.19 0 0 637.58 56.55 0c64.02,0 111.31,-26.84 141.9,-80.31 30.36,-53.46 45.76,-133.98 45.76,-241.34zm348.95 474.77l0 -942.52 165 0 0 942.52 -165 0zm809.84 0l-53.9 -237.6 -245.53 0 -54.12 237.6 -175.35 0 233.21 -946.47 237.83 0 233.87 946.47 -176.01 0zm-86.9 -393.37l-50.17 -219.14c-3.07,-13.41 -9.89,-46.85 -20.45,-100.31 -10.34,-53.46 -16.72,-89.33 -18.92,-107.36 -5.51,36.95 -12.77,77.66 -21.35,122.1 -8.58,44.66 -30.8,146.08 -66.88,304.71l177.77 0z"/>
   <g>
    <path class="fil1" d="M1514.88 1225.17c223.49,-341.75 260.81,-808.45 -69.13,-1225.18l-418.66 226.37c119.54,229.09 175.32,457.2 190.47,599.69 58.84,-125.81 86.03,-165.82 120.05,-265.41 124.73,145.36 202.7,399.51 177.27,664.53z"/>
    <path class="fil2" d="M1426.11 1431.65c399.68,-83.63 756.08,-387.25 817.45,-915.22l-456.11 -135.97c-77.46,246.52 -199.32,447.26 -289.36,558.73 130.57,-47.36 178.09,-56.42 272.56,-102.79 -14.58,190.98 -139.16,425.83 -344.54,595.25z"/>
    <path class="fil1" d="M1217.34 1514.87c341.75,223.49 808.45,260.81 1225.17,-69.13l-226.36 -418.66c-229.09,119.54 -457.2,175.32 -599.69,190.47 125.81,58.85 165.82,86.04 265.41,120.05 -145.36,124.73 -399.51,202.71 -664.53,177.27z"/>
    <path class="fil2" d="M1010.86 1426.1c83.62,399.69 387.25,756.08 915.22,817.45l135.97 -456.1c-246.52,-77.46 -447.26,-199.32 -558.73,-289.36 47.36,130.57 56.42,178.08 102.79,272.55 -190.98,-14.58 -425.83,-139.16 -595.25,-344.54z"/>
    <path class="fil1" d="M927.63 1217.33c-223.49,341.75 -260.8,808.45 69.14,1225.18l418.66 -226.37c-119.54,-229.09 -175.32,-457.2 -190.47,-599.69 -58.85,125.81 -86.04,165.82 -120.05,265.41 -124.73,-145.35 -202.71,-399.51 -177.28,-664.53z"/>
    <path class="fil2" d="M1016.41 1010.86c-399.69,83.62 -756.09,387.24 -817.45,915.21l456.1 135.97c77.46,-246.51 199.32,-447.26 289.36,-558.72 -130.57,47.35 -178.08,56.41 -272.56,102.78 14.59,-190.98 139.16,-425.83 344.55,-595.24z"/>
    <path class="fil1" d="M1225.18 927.63c-341.75,-223.49 -808.46,-260.81 -1225.18,69.13l226.37 418.66c229.08,-119.54 457.2,-175.32 599.69,-190.47 -125.81,-58.84 -165.82,-86.04 -265.41,-120.05 145.35,-124.73 399.51,-202.71 664.53,-177.27z"/>
    <path class="fil2" d="M1431.65 1016.4c-83.62,-399.69 -387.24,-756.08 -915.21,-817.45l-135.97 456.1c246.51,77.46 447.25,199.33 558.72,289.37 -47.35,-130.57 -56.41,-178.09 -102.78,-272.56 190.98,14.58 425.83,139.16 595.24,344.54z"/>
    <path class="fil1" d="M1134.37 474.84c46.65,133.63 72.33,255.07 82.45,344.49l2.94 2.02c31.82,-67.78 54.27,-110.34 73.7,-151.61 -44.03,-70.54 -97.03,-136.19 -159.09,-194.9z"/>
   </g>
   <path class="fil0" d="M3206.64 1946.21l0 -224.97c0,-33.38 -6.57,-57.83 -19.6,-73.12 -13.03,-15.4 -33.06,-23.05 -59.98,-23.05 -35.11,0 -61.06,9.7 -77.97,28.97 -16.8,19.39 -25.2,49.76 -25.2,91.22l0 200.95 -31.88 0 0 -234.34c0,-57.83 -26.49,-86.8 -79.47,-86.8 -35.97,0 -62.25,10.45 -78.62,31.34 -16.37,21 -24.66,54.49 -24.66,100.48l0 189.32 -31.23 0 0 -343.11 25.95 0 6.57 47.17 1.94 0c9.48,-17.01 22.94,-30.26 40.39,-39.63 17.44,-9.37 36.72,-14 57.72,-14 54.06,0 88.74,20.25 104.14,60.85l1.29 0c11.09,-19.49 26.17,-34.57 44.91,-45.12 18.84,-10.45 40.27,-15.73 64.29,-15.73 37.37,0 65.47,10.02 84.21,29.94 18.74,20.03 28.11,51.8 28.11,95.31l0 224.32 -30.91 0zm350.21 0l-7.86 -54.28 -2.58 0c-17.23,22.19 -35,37.8 -53.2,46.96 -18.2,9.15 -39.74,13.78 -64.51,13.78 -33.71,0 -59.88,-8.61 -78.61,-25.84 -18.74,-17.34 -28.11,-41.14 -28.11,-71.73 0,-33.49 14,-59.44 41.89,-77.97 27.89,-18.52 68.17,-28.32 121.04,-29.29l65.27 -1.94 0 -22.72c0,-32.63 -6.57,-57.18 -19.82,-73.88 -13.25,-16.58 -34.68,-24.87 -64.08,-24.87 -31.76,0 -64.72,8.83 -98.86,26.49l-11.63 -27.14c37.69,-17.66 74.85,-26.49 111.68,-26.49 37.69,0 65.8,9.8 84.43,29.29 18.63,19.6 28,50.08 28,91.54l0 228.09 -23.05 0zm-126.32 -21.97c36.62,0 65.58,-10.45 86.69,-31.45 21.11,-20.89 31.77,-49.96 31.77,-87.23l0 -33.81 -59.98 2.48c-48.25,2.37 -82.6,9.9 -103.06,22.61 -20.57,12.71 -30.8,32.63 -30.8,59.56 0,21.43 6.57,38.12 19.7,49.96 13.14,11.96 31.77,17.88 55.68,17.88zm395.23 -327.6c14.54,0 30.15,1.51 46.74,4.42l-6.04 30.04c-14.32,-3.55 -29.07,-5.38 -44.47,-5.38 -29.19,0 -53.2,12.38 -71.83,37.26 -18.74,24.77 -28.11,56.11 -28.11,94.02l0 189.21 -31.23 0 0 -343.11 26.49 0 3.12 62.03 2.27 0c14.1,-25.3 29.07,-42.96 45.12,-53.19 15.94,-10.24 35.32,-15.3 57.94,-15.3zm147.21 199.02l175.11 -192.56 37.91 0 -135.16 146.47 146.79 196.64 -37.59 0 -130.3 -173.28 -56.22 51.16 0 122.12 -31.23 0 0 -491.07 31.23 0 0 246.18 -2.15 94.34 1.61 0zm407.62 157.01c-49.86,0 -88.74,-15.4 -116.63,-46.09 -27.89,-30.69 -41.79,-73.77 -41.79,-129.12 0,-54.71 13.47,-98.54 40.39,-131.39 26.92,-32.95 63.21,-49.43 108.88,-49.43 40.38,0 72.26,14 95.63,42.11 23.36,28 35,66.12 35,114.37l0 25.09 -247.16 0c0.43,47.39 11.42,83.57 33.06,108.55 21.54,24.99 52.45,37.48 92.62,37.48 19.6,0 36.72,-1.4 51.58,-4.09 14.86,-2.69 33.6,-8.62 56.33,-17.66l0 28.43c-19.39,8.4 -37.27,14.11 -53.63,17.12 -16.37,3.12 -34.47,4.63 -54.28,4.63zm-9.15 -328.89c-33.07,0 -59.56,10.88 -79.59,32.74 -19.92,21.86 -31.66,53.41 -35,94.55l212.05 0c0,-39.95 -8.62,-71.07 -25.85,-93.58 -17.23,-22.51 -41.14,-33.71 -71.61,-33.71zm315.75 301.75c19.81,0 37.04,-1.72 51.8,-5.06l0 24.77c-15.19,4.95 -32.63,7.43 -52.45,7.43 -30.26,0 -52.55,-8.08 -66.98,-24.34 -14.43,-16.15 -21.65,-41.67 -21.65,-76.35l0 -221.74 -50.83 0 0 -18.3 50.83 -14.22 15.72 -77.32 16.16 0 0 82.7 100.69 0 0 27.14 -100.69 0 0 217.76c0,26.38 4.63,45.87 13.89,58.58 9.26,12.6 23.8,18.95 43.51,18.95zm157.12 20.68l-31.23 0 0 -343.11 31.23 0 0 343.11zm-35.65 -438.31c0,-20.13 6.68,-30.15 19.93,-30.15 6.46,0 11.52,2.59 15.29,7.86 3.66,5.28 5.49,12.71 5.49,22.29 0,9.48 -1.83,16.91 -5.49,22.4 -3.77,5.5 -8.83,8.19 -15.29,8.19 -13.25,0 -19.93,-10.23 -19.93,-30.59zm389.74 438.31l0 -222.38c0,-34.46 -7.32,-59.56 -21.86,-75.28 -14.43,-15.62 -36.94,-23.48 -67.52,-23.48 -41.03,0 -71.08,10.34 -90.03,31.13 -19.07,20.67 -28.65,54.27 -28.65,100.69l0 189.32 -31.23 0 0 -343.11 26.49 0 6.03 47.17 1.94 0c22.29,-35.75 61.92,-53.63 119,-53.63 77.75,0 116.74,41.79 116.74,125.25l0 224.32 -30.91 0zm409.44 -343.11l0 21.43 -70.97 4.42c18.85,23.69 28.33,49.75 28.33,78.18 0,33.07 -10.99,59.88 -32.96,80.34 -21.97,20.57 -51.47,30.8 -88.52,30.8 -15.51,0 -26.49,-0.64 -32.74,-1.94 -12.49,6.57 -21.97,14.22 -28.43,23.05 -6.57,8.83 -9.8,18.2 -9.8,28.11 0,10.98 4.2,18.95 12.49,24.01 8.3,5.06 22.19,7.54 41.79,7.54l59.98 0c37.16,0 65.7,7.54 85.51,22.51 19.71,15.08 29.62,37.26 29.62,66.66 0,36.08 -14.65,63.97 -44.05,83.57 -29.29,19.71 -71.08,29.51 -125.35,29.51 -43.19,0 -76.57,-8.3 -100.26,-24.88 -23.59,-16.59 -35.43,-39.74 -35.43,-69.35 0,-23.59 7.32,-43.08 21.86,-58.59 14.64,-15.61 34.46,-26.17 59.55,-31.88 -10.34,-4.41 -18.63,-10.66 -24.77,-18.73 -6.25,-8.08 -9.37,-17.45 -9.37,-27.9 0,-22.93 14.65,-43.07 43.94,-60.52 -20.03,-8.18 -35.65,-21.11 -46.74,-38.66 -11.2,-17.55 -16.69,-37.8 -16.69,-60.52 0,-34.25 10.88,-61.82 32.63,-82.49 21.75,-20.79 51.15,-31.13 88.2,-31.13 22.51,0 39.95,2.16 52.34,6.46l109.84 0zm-277.63 401.05c0,47.06 35,70.64 105,70.64 90.03,0 135.05,-28.64 135.05,-86.04 0,-20.68 -7,-35.54 -21.11,-44.8 -14.11,-9.26 -36.94,-13.89 -68.49,-13.89l-56.11 0c-62.89,0 -94.34,24.66 -94.34,74.09zm26.17 -294c0,26.49 7.97,47.06 24.13,61.6 16.04,14.65 37.58,21.97 64.5,21.97 28.65,0 50.51,-7.22 65.8,-21.76 15.3,-14.53 22.83,-35.53 22.83,-63.1 0,-29.19 -7.75,-51.16 -23.47,-65.69 -15.73,-14.65 -37.59,-21.97 -65.8,-21.97 -27.36,0 -48.79,7.86 -64.51,23.47 -15.72,15.73 -23.48,37.48 -23.48,65.48zm303.16 119.11c0,-29.08 7.75,-53.74 23.26,-74.2 15.4,-20.36 44.26,-42 86.58,-64.73l-23.69 -25.84c-13.89,-14.97 -24.12,-29.51 -30.91,-43.83 -6.67,-14.32 -10.12,-29.19 -10.12,-44.8 0,-30.05 10.12,-53.96 30.16,-71.62 20.13,-17.66 47.06,-26.49 80.98,-26.49 32.63,0 58.37,8.51 77.43,25.52 19.06,17.02 28.54,40.6 28.54,70.65 0,22.08 -7.32,42.32 -22.08,60.74 -14.64,18.41 -41.35,38.87 -79.8,61.38l142.59 144.2c12.92,-15.18 23.8,-31.66 32.84,-49.54 9.05,-17.87 16.91,-38.98 23.69,-63.43l30.27 0c-13.25,51.69 -35.22,96.49 -65.91,134.4l83.89 84.54 -42.54 0 -60.95 -62.14c-19.39,18.96 -36.62,32.85 -51.69,41.57 -15.19,8.72 -31.77,15.4 -49.76,20.03 -17.98,4.63 -38.44,7 -61.38,7 -43.94,0 -78.51,-10.88 -103.6,-32.52 -25.2,-21.65 -37.8,-52.02 -37.8,-90.89zm143.55 94.98c26.92,0 51.59,-4.63 73.99,-13.78 22.4,-9.16 44.47,-24.56 66.12,-46.31l-152.38 -152.92c-28.54,15.07 -49.22,28 -62.04,38.66 -12.7,10.55 -21.96,22.07 -27.67,34.57 -5.82,12.38 -8.73,26.92 -8.73,43.5 0,30.16 9.8,53.64 29.4,70.76 19.5,17.01 46.64,25.52 81.31,25.52zm-64.61 -349.03c0,16.69 4.2,31.99 12.6,46.09 8.4,14.11 24.44,32.42 47.92,54.93 33.49,-17.88 56.75,-34.68 69.78,-50.19 13.03,-15.61 19.6,-33.38 19.6,-53.3 0,-19.82 -6.57,-35.76 -19.6,-48.14 -13.03,-12.28 -30.69,-18.42 -52.98,-18.42 -24.02,0 -42.86,6.14 -56.65,18.31 -13.78,12.17 -20.67,29.08 -20.67,50.72zm608.67 371l-7.86 -54.28 -2.58 0c-17.23,22.19 -35,37.8 -53.2,46.96 -18.2,9.15 -39.74,13.78 -64.51,13.78 -33.71,0 -59.88,-8.61 -78.61,-25.84 -18.74,-17.34 -28.11,-41.14 -28.11,-71.73 0,-33.49 14,-59.44 41.89,-77.97 27.89,-18.52 68.17,-28.32 121.04,-29.29l65.27 -1.94 0 -22.72c0,-32.63 -6.57,-57.18 -19.82,-73.88 -13.25,-16.58 -34.68,-24.87 -64.08,-24.87 -31.76,0 -64.72,8.83 -98.86,26.49l-11.63 -27.14c37.69,-17.66 74.85,-26.49 111.68,-26.49 37.69,0 65.8,9.8 84.43,29.29 18.63,19.6 28,50.08 28,91.54l0 228.09 -23.05 0zm-126.32 -21.97c36.62,0 65.58,-10.45 86.69,-31.45 21.11,-20.89 31.77,-49.96 31.77,-87.23l0 -33.81 -59.98 2.48c-48.25,2.37 -82.6,9.9 -103.06,22.61 -20.57,12.71 -30.8,32.63 -30.8,59.56 0,21.43 6.57,38.12 19.7,49.96 13.14,11.96 31.77,17.88 55.68,17.88zm385.86 -327.6c24.77,0 46.2,4.53 64.29,13.57 18.09,9.05 34.25,24.56 48.57,46.42l1.94 0c-1.29,-26.5 -1.94,-52.56 -1.94,-77.97l0 -123.52 30.91 0 0 491.07 -20.46 0 -7.97 -52.23 -2.48 0c-26.06,39.09 -63.54,58.69 -112.32,58.69 -47.28,0 -83.46,-14.75 -108.45,-44.15 -24.98,-29.51 -37.58,-72.37 -37.58,-128.8 0,-59.34 12.49,-104.68 37.26,-136.02 24.77,-31.33 60.84,-47.06 108.23,-47.06zm0 28.43c-37.48,0 -65.59,13.14 -84.43,39.53 -18.74,26.38 -28.22,64.61 -28.22,114.8 0,97.46 37.8,146.13 113.19,146.13 38.77,0 67.09,-11.3 85.18,-33.81 18.09,-22.62 27.14,-59.77 27.14,-111.68l0 -5.38c0,-53.09 -8.94,-91.33 -26.6,-114.59 -17.77,-23.37 -46.52,-35 -86.26,-35zm334.06 321.14l-132.46 -343.11 32.2 0 88.63 233.26c11.74,29.94 20.68,56 26.49,78.3l1.94 0c8.62,-28.65 17.45,-54.93 26.49,-78.94l88.63 -232.62 32.2 0 -132.57 343.11 -31.55 0zm360.12 6.46c-49.86,0 -88.74,-15.4 -116.63,-46.09 -27.89,-30.69 -41.79,-73.77 -41.79,-129.12 0,-54.71 13.47,-98.54 40.39,-131.39 26.92,-32.95 63.21,-49.43 108.88,-49.43 40.38,0 72.26,14 95.63,42.11 23.36,28 35,66.12 35,114.37l0 25.09 -247.16 0c0.43,47.39 11.42,83.57 33.06,108.55 21.54,24.99 52.45,37.48 92.62,37.48 19.6,0 36.72,-1.4 51.58,-4.09 14.86,-2.69 33.6,-8.62 56.33,-17.66l0 28.43c-19.39,8.4 -37.27,14.11 -53.63,17.12 -16.37,3.12 -34.47,4.63 -54.28,4.63zm-9.15 -328.89c-33.07,0 -59.56,10.88 -79.59,32.74 -19.92,21.86 -31.66,53.41 -35,94.55l212.05 0c0,-39.95 -8.62,-71.07 -25.85,-93.58 -17.23,-22.51 -41.14,-33.71 -71.61,-33.71zm360.12 -27.14c14.54,0 30.15,1.51 46.74,4.42l-6.04 30.04c-14.32,-3.55 -29.07,-5.38 -44.47,-5.38 -29.19,0 -53.2,12.38 -71.83,37.26 -18.74,24.77 -28.11,56.11 -28.11,94.02l0 189.21 -31.23 0 0 -343.11 26.49 0 3.12 62.03 2.27 0c14.1,-25.3 29.07,-42.96 45.12,-53.19 15.94,-10.24 35.32,-15.3 57.94,-15.3zm207.09 328.89c19.81,0 37.04,-1.72 51.8,-5.06l0 24.77c-15.19,4.95 -32.63,7.43 -52.45,7.43 -30.26,0 -52.55,-8.08 -66.98,-24.34 -14.43,-16.15 -21.65,-41.67 -21.65,-76.35l0 -221.74 -50.83 0 0 -18.3 50.83 -14.22 15.72 -77.32 16.16 0 0 82.7 100.69 0 0 27.14 -100.69 0 0 217.76c0,26.38 4.63,45.87 13.89,58.58 9.26,12.6 23.8,18.95 43.51,18.95zm157.12 20.68l-31.23 0 0 -343.11 31.23 0 0 343.11zm-35.65 -438.31c0,-20.13 6.68,-30.15 19.93,-30.15 6.46,0 11.52,2.59 15.29,7.86 3.66,5.28 5.49,12.71 5.49,22.29 0,9.48 -1.83,16.91 -5.49,22.4 -3.77,5.5 -8.83,8.19 -15.29,8.19 -13.25,0 -19.93,-10.23 -19.93,-30.59zm363.25 349.14c0,30.69 -11.74,54.39 -35.11,70.86 -23.26,16.48 -56.43,24.77 -99.4,24.77 -45.88,0 -82.27,-7.11 -109.2,-21.21l0 -33.71c34.57,17.23 70.97,25.84 109.2,25.84 33.92,0 59.66,-5.6 77.22,-16.9 17.55,-11.2 26.38,-26.17 26.38,-44.91 0,-17.23 -7,-31.77 -21,-43.62 -14,-11.73 -37.04,-23.26 -69.03,-34.67 -34.25,-12.39 -58.37,-23.05 -72.26,-31.99 -13.89,-9.04 -24.34,-19.06 -31.34,-30.37 -7.11,-11.2 -10.66,-24.98 -10.66,-41.13 0,-25.74 10.77,-45.99 32.41,-60.96 21.54,-14.97 51.7,-22.4 90.36,-22.4 37.04,0 72.26,7 105.43,20.9l-11.63 28.32c-33.71,-13.89 -64.94,-20.79 -93.8,-20.79 -28,0 -50.19,4.63 -66.56,13.9 -16.47,9.26 -24.66,22.07 -24.66,38.44 0,17.88 6.36,32.2 19.17,42.97 12.71,10.77 37.59,22.72 74.63,35.97 30.91,11.2 53.42,21.21 67.53,30.15 14.1,8.94 24.66,19.06 31.76,30.48 7,11.31 10.56,24.66 10.56,40.06zm119.43 89.17l-31.23 0 0 -343.11 31.23 0 0 343.11zm-35.65 -438.31c0,-20.13 6.68,-30.15 19.93,-30.15 6.46,0 11.52,2.59 15.29,7.86 3.66,5.28 5.49,12.71 5.49,22.29 0,9.48 -1.83,16.91 -5.49,22.4 -3.77,5.5 -8.83,8.19 -15.29,8.19 -13.25,0 -19.93,-10.23 -19.93,-30.59zm389.74 438.31l0 -222.38c0,-34.46 -7.32,-59.56 -21.86,-75.28 -14.43,-15.62 -36.94,-23.48 -67.52,-23.48 -41.03,0 -71.08,10.34 -90.03,31.13 -19.07,20.67 -28.65,54.27 -28.65,100.69l0 189.32 -31.23 0 0 -343.11 26.49 0 6.03 47.17 1.94 0c22.29,-35.75 61.92,-53.63 119,-53.63 77.75,0 116.74,41.79 116.74,125.25l0 224.32 -30.91 0zm409.44 -343.11l0 21.43 -70.97 4.42c18.85,23.69 28.33,49.75 28.33,78.18 0,33.07 -10.99,59.88 -32.96,80.34 -21.97,20.57 -51.47,30.8 -88.52,30.8 -15.51,0 -26.49,-0.64 -32.74,-1.94 -12.49,6.57 -21.97,14.22 -28.43,23.05 -6.57,8.83 -9.8,18.2 -9.8,28.11 0,10.98 4.2,18.95 12.49,24.01 8.3,5.06 22.19,7.54 41.79,7.54l59.98 0c37.16,0 65.7,7.54 85.51,22.51 19.71,15.08 29.62,37.26 29.62,66.66 0,36.08 -14.65,63.97 -44.05,83.57 -29.29,19.71 -71.08,29.51 -125.35,29.51 -43.19,0 -76.57,-8.3 -100.26,-24.88 -23.59,-16.59 -35.43,-39.74 -35.43,-69.35 0,-23.59 7.32,-43.08 21.86,-58.59 14.64,-15.61 34.46,-26.17 59.55,-31.88 -10.34,-4.41 -18.63,-10.66 -24.77,-18.73 -6.25,-8.08 -9.37,-17.45 -9.37,-27.9 0,-22.93 14.65,-43.07 43.94,-60.52 -20.03,-8.18 -35.65,-21.11 -46.74,-38.66 -11.2,-17.55 -16.69,-37.8 -16.69,-60.52 0,-34.25 10.88,-61.82 32.63,-82.49 21.75,-20.79 51.15,-31.13 88.2,-31.13 22.51,0 39.95,2.16 52.34,6.46l109.84 0zm-277.63 401.05c0,47.06 35,70.64 105,70.64 90.03,0 135.05,-28.64 135.05,-86.04 0,-20.68 -7,-35.54 -21.11,-44.8 -14.11,-9.26 -36.94,-13.89 -68.49,-13.89l-56.11 0c-62.89,0 -94.34,24.66 -94.34,74.09zm26.17 -294c0,26.49 7.97,47.06 24.13,61.6 16.04,14.65 37.58,21.97 64.5,21.97 28.65,0 50.51,-7.22 65.8,-21.76 15.3,-14.53 22.83,-35.53 22.83,-63.1 0,-29.19 -7.75,-51.16 -23.47,-65.69 -15.73,-14.65 -37.59,-21.97 -65.8,-21.97 -27.36,0 -48.79,7.86 -64.51,23.47 -15.72,15.73 -23.48,37.48 -23.48,65.48z"/>
  </g>
 </g>
</svg>
